<svg xmlns="http://www.w3.org/2000/svg" viewBox="0 0 500 500"><g id="freepik--background-complete--inject-106"><rect y="382.4" width="500" height="0.25" style="fill:#e6e6e6"></rect><rect x="449.63" y="391.22" width="18.77" height="0.25" style="fill:#e6e6e6"></rect><rect x="373.07" y="398.08" width="8.69" height="0.25" style="fill:#e6e6e6"></rect><rect x="279.96" y="394.63" width="19.36" height="0.25" style="fill:#e6e6e6"></rect><rect x="80.93" y="394.5" width="43.19" height="0.25" style="fill:#e6e6e6"></rect><rect x="65.7" y="394.5" width="6.33" height="0.25" style="fill:#e6e6e6"></rect><rect x="189.3" y="388.58" width="93.68" height="0.25" style="fill:#e6e6e6"></rect><path d="M237,337.8H43.91a5.71,5.71,0,0,1-5.7-5.71V60.66A5.71,5.71,0,0,1,43.91,55H237a5.71,5.71,0,0,1,5.71,5.71V332.09A5.71,5.71,0,0,1,237,337.8ZM43.91,55.2a5.46,5.46,0,0,0-5.45,5.46V332.09a5.46,5.46,0,0,0,5.45,5.46H237a5.47,5.47,0,0,0,5.46-5.46V60.66A5.47,5.47,0,0,0,237,55.2Z" style="fill:#e6e6e6"></path><path d="M453.31,337.8H260.21a5.72,5.72,0,0,1-5.71-5.71V60.66A5.72,5.72,0,0,1,260.21,55h193.1A5.71,5.71,0,0,1,459,60.66V332.09A5.71,5.71,0,0,1,453.31,337.8ZM260.21,55.2a5.47,5.47,0,0,0-5.46,5.46V332.09a5.47,5.47,0,0,0,5.46,5.46h193.1a5.47,5.47,0,0,0,5.46-5.46V60.66a5.47,5.47,0,0,0-5.46-5.46Z" style="fill:#e6e6e6"></path><rect x="58.71" y="73.68" width="202.25" height="144.13" style="fill:#fafafa"></rect><rect x="60.46" y="73.68" width="204.24" height="144.13" style="fill:#f5f5f5"></rect><rect x="96.4" y="48.86" width="132.36" height="193.76" transform="translate(308.32 -16.84) rotate(90)" style="fill:#fafafa"></rect><polygon points="100.98 211.92 131.72 79.56 172.02 79.56 141.28 211.92 100.98 211.92" style="fill:#fff"></polygon><polygon points="147.8 211.92 178.55 79.56 196.75 79.56 166 211.92 147.8 211.92" style="fill:#fff"></polygon><rect x="192.95" y="145.41" width="132.36" height="0.67" transform="translate(404.87 -113.39) rotate(90)" style="fill:#fafafa"></rect><path d="M54.78,73.44v57.12H69.89S97,112.85,103.21,76.42a6.06,6.06,0,0,0-6-7.09H58.89A4.11,4.11,0,0,0,54.78,73.44Z" style="fill:#e0e0e0"></path><path d="M54.78,235.44V135.17H69.89s30.67,59.05,34.22,100.27Z" style="fill:#e0e0e0"></path><rect x="53.82" y="130.56" width="17.14" height="4.61" rx="1.51" style="fill:#f5f5f5"></rect><path d="M269,73.44v57.12H253.86s-27.15-17.71-33.32-54.14a6.07,6.07,0,0,1,6-7.09h38.36A4.12,4.12,0,0,1,269,73.44Z" style="fill:#e0e0e0"></path><path d="M269,235.44V135.17H253.86s-30.66,59.05-34.22,100.27Z" style="fill:#e0e0e0"></path><rect x="252.8" y="130.56" width="17.14" height="4.61" rx="1.51" transform="translate(522.73 265.72) rotate(180)" style="fill:#f5f5f5"></rect><rect x="231.2" y="253.66" width="33.23" height="128.74" style="fill:#fafafa"></rect><polygon points="255.56 382.4 264.43 382.4 264.43 367.53 246.26 367.53 255.56 382.4" style="fill:#f4f8ff"></polygon><rect x="72.22" y="253.66" width="33.23" height="128.74" style="fill:#e0e0e0"></rect><rect x="97.71" y="253.66" width="166.72" height="123.62" style="fill:#fafafa"></rect><path d="M147.8,231.8c0,12,11.56,21.86,25.7,21.86h12.76c14.13,0,25.69-9.84,25.69-21.86Z" style="fill:#ebebeb"></path><path d="M140.4,204.33h24s-4.17,11-4.17,17.48,18.26,31.85-7.83,31.85-7.83-25.38-7.83-31.85S140.4,204.33,140.4,204.33Z" style="fill:#e0e0e0"></path><rect x="104.59" y="261.19" width="152.96" height="31.17" style="fill:#ebebeb"></rect><polygon points="106.58 382.4 97.71 382.4 97.71 367.53 115.89 367.53 106.58 382.4" style="fill:#fafafa"></polygon><path d="M176.37,276.77a4.7,4.7,0,1,0,4.7-4.7A4.7,4.7,0,0,0,176.37,276.77Z" style="fill:#fafafa"></path><rect x="104.59" y="299.89" width="152.96" height="31.17" style="fill:#ebebeb"></rect><path d="M176.37,315.47a4.7,4.7,0,1,0,4.7-4.7A4.7,4.7,0,0,0,176.37,315.47Z" style="fill:#fafafa"></path><rect x="104.59" y="338.58" width="152.96" height="31.17" style="fill:#ebebeb"></rect><circle cx="181.07" cy="354.17" r="4.7" style="fill:#fafafa"></circle><rect x="295.65" y="71.94" width="74.23" height="52.84" style="fill:#e0e0e0"></rect><rect x="299.87" y="71.94" width="76.07" height="52.84" style="fill:#f5f5f5"></rect><rect x="316.34" y="65.17" width="43.14" height="66.37" transform="translate(436.26 -239.55) rotate(90)" style="fill:#fff"></rect><rect x="328.9" y="76.85" width="18.01" height="43.01" transform="translate(436.26 -239.55) rotate(90)" style="fill:#f5f5f5"></rect><rect x="384.92" y="98.36" width="45.18" height="47.38" style="fill:#e0e0e0"></rect><rect x="389.15" y="98.36" width="47.03" height="47.38" style="fill:#f5f5f5"></rect><rect x="393.82" y="103.38" width="37.68" height="37.33" transform="translate(534.71 -290.61) rotate(90)" style="fill:#fff"></rect><path d="M405.68,122.05h0a6.28,6.28,0,0,1,6.27-6.28h1.42a6.28,6.28,0,0,1,6.27,6.28h0a6.27,6.27,0,0,1-6.27,6.27H412A6.27,6.27,0,0,1,405.68,122.05Z" style="fill:#f5f5f5"></path><polygon points="500 161.85 380.7 161.85 359.01 161.85 359.01 189.42 359.01 189.42 359.01 189.42 359.01 189.42 337.32 189.42 337.32 216.99 337.32 216.99 315.63 216.99 315.63 244.56 315.63 244.56 293.94 244.56 293.94 272.13 293.94 272.13 272.25 272.13 272.25 299.69 272.25 299.69 250.56 299.69 250.56 327.26 250.56 327.26 250.56 327.26 250.56 327.26 228.87 327.26 228.87 354.83 228.87 354.83 228.87 354.83 228.87 354.83 207.18 354.83 207.18 382.4 228.87 382.4 500 382.4 500 161.85" style="fill:#fafafa"></polygon><rect x="204.95" y="354.83" width="123.63" height="8.27" style="fill:#ebebeb"></rect><rect x="226.64" y="327.26" width="123.63" height="8.27" style="fill:#ebebeb"></rect><rect x="248.33" y="299.69" width="123.63" height="8.27" style="fill:#ebebeb"></rect><rect x="270.02" y="272.12" width="123.63" height="8.27" style="fill:#ebebeb"></rect><rect x="291.71" y="244.56" width="123.63" height="8.27" style="fill:#ebebeb"></rect><rect x="313.4" y="216.99" width="123.63" height="8.27" style="fill:#ebebeb"></rect><rect x="335.09" y="189.42" width="123.63" height="8.27" style="fill:#ebebeb"></rect><rect x="356.78" y="161.85" width="123.63" height="8.27" style="fill:#ebebeb"></rect><polygon points="478.31 161.85 478.31 189.42 478.31 189.42 478.31 189.42 478.31 189.42 456.62 189.42 456.62 216.99 456.62 216.99 456.62 216.99 456.62 216.99 434.93 216.99 434.93 244.56 434.93 244.56 434.93 244.56 434.93 244.56 413.24 244.56 413.24 272.13 413.24 272.13 391.55 272.13 391.55 299.69 391.55 299.69 369.86 299.69 369.86 327.26 369.86 327.26 348.17 327.26 348.17 354.83 348.17 354.83 326.48 354.83 326.48 382.4 348.17 382.4 500 382.4 500 189.42 500 161.85 478.31 161.85" style="fill:#fff"></polygon></g><g id="freepik--Shadow--inject-106"><ellipse cx="250" cy="416.24" rx="193.89" ry="11.32" style="fill:#f5f5f5"></ellipse></g><g id="freepik--Documents--inject-106"><path d="M190.41,223.53h0A11,11,0,0,0,179.69,215h-80a11,11,0,0,0-11,11V403.82a11,11,0,0,0,11,11h254a11,11,0,0,0,11-11V254.45a11,11,0,0,0-11-11H215.44A25.68,25.68,0,0,1,190.41,223.53Z" style="fill:#F44336"></path><path d="M190.41,223.53h0A11,11,0,0,0,179.69,215h-80a11,11,0,0,0-11,11V403.82a11,11,0,0,0,11,11h254a11,11,0,0,0,11-11V254.45a11,11,0,0,0-11-11H215.44A25.68,25.68,0,0,1,190.41,223.53Z" style="opacity:0.6000000000000001"></path><path d="M162.17,168.15l7.13,23.09a11.61,11.61,0,0,0,14.51,7.66l23.08-7.13Z" style="fill:#F44336;opacity:0.22"></path><path d="M162.17,168.15l-82.5,25.49A11.59,11.59,0,0,0,72,208.14l47.1,152.48a11.6,11.6,0,0,0,14.51,7.66L239.2,335.66a11.59,11.59,0,0,0,7.66-14.5l-40-129.39Z" style="fill:#F44336"></path><path d="M162.17,168.15l-82.5,25.49A11.59,11.59,0,0,0,72,208.14l47.1,152.48a11.6,11.6,0,0,0,14.51,7.66L239.2,335.66a11.59,11.59,0,0,0,7.66-14.5l-40-129.39Z" style="fill:#fff;opacity:0.8"></path><g style="opacity:0.28"><path d="M206.56,329l-68.64,21.2a5.08,5.08,0,0,1-6.34-3.34h0a5.08,5.08,0,0,1,3.35-6.33l68.64-21.21a5.08,5.08,0,0,1,6.34,3.35h0A5.08,5.08,0,0,1,206.56,329Z" style="fill:#F44336"></path></g><g style="opacity:0.28"><path d="M132.69,204.58l-36.3,11.21a5.09,5.09,0,0,1-6.34-3.34h0a5.09,5.09,0,0,1,3.35-6.34l36.3-11.21a5.07,5.07,0,0,1,6.34,3.34h0A5.09,5.09,0,0,1,132.69,204.58Z" style="fill:#F44336"></path></g><g style="opacity:0.28"><path d="M162.31,216.47l-60,18.53A5.08,5.08,0,0,1,96,231.65h0a5.07,5.07,0,0,1,3.34-6.33l60-18.53a5.08,5.08,0,0,1,6.34,3.34h0A5.1,5.1,0,0,1,162.31,216.47Z" style="fill:#F44336"></path></g><g style="opacity:0.28"><path d="M195.81,227.16l-87.56,27a5.07,5.07,0,0,1-6.33-3.34h0a5.09,5.09,0,0,1,3.34-6.34l87.56-27a5.08,5.08,0,0,1,6.33,3.34h0A5.08,5.08,0,0,1,195.81,227.16Z" style="fill:#F44336"></path></g><g style="opacity:0.28"><path d="M201.74,246.36l-50.9,15.73a5.08,5.08,0,0,1-6.33-3.35h0a5.08,5.08,0,0,1,3.34-6.33l50.9-15.73a5.1,5.1,0,0,1,6.34,3.35h0A5.08,5.08,0,0,1,201.74,246.36Z" style="fill:#F44336"></path></g><g style="opacity:0.28"><path d="M127.5,269.3l-13.31,4.11a5.08,5.08,0,0,1-6.34-3.34h0a5.08,5.08,0,0,1,3.35-6.34l13.31-4.11a5.09,5.09,0,0,1,6.34,3.34h0A5.1,5.1,0,0,1,127.5,269.3Z" style="fill:#F44336"></path></g><g style="opacity:0.28"><path d="M207.68,265.57l-87.56,27.05a5.08,5.08,0,0,1-6.33-3.35h0a5.07,5.07,0,0,1,3.34-6.33l87.56-27.05a5.08,5.08,0,0,1,6.33,3.34h0A5.08,5.08,0,0,1,207.68,265.57Z" style="fill:#F44336"></path></g><g style="opacity:0.28"><path d="M179.82,295.21l-53.77,16.61a5.08,5.08,0,0,1-6.33-3.34h0a5.09,5.09,0,0,1,3.34-6.34l53.77-16.61a5.09,5.09,0,0,1,6.34,3.35h0A5.07,5.07,0,0,1,179.82,295.21Z" style="fill:#F44336"></path></g><g style="opacity:0.28"><path d="M213.61,284.78l-14.35,4.43a5.09,5.09,0,0,1-6.34-3.35h0a5.08,5.08,0,0,1,3.35-6.33l14.35-4.43a5.07,5.07,0,0,1,6.33,3.34h0A5.08,5.08,0,0,1,213.61,284.78Z" style="fill:#F44336"></path></g><g style="opacity:0.28"><path d="M219.54,304,132,331a5.08,5.08,0,0,1-6.34-3.35h0a5.07,5.07,0,0,1,3.35-6.33l87.55-27.05a5.1,5.1,0,0,1,6.34,3.35h0A5.08,5.08,0,0,1,219.54,304Z" style="fill:#F44336"></path></g><path d="M221.42,110.81l26.18,58.34a6.31,6.31,0,0,1-3.16,8.32L133.38,227.32a6.3,6.3,0,0,1-8.32-3.16L98.87,165.82a6.3,6.3,0,0,1,3.16-8.33l111.06-49.85a6.32,6.32,0,0,1,8.33,3.17Z" style="fill:#F44336"></path><path d="M221.42,110.81l26.18,58.34a6.31,6.31,0,0,1-3.16,8.32L133.38,227.32a6.3,6.3,0,0,1-8.32-3.16L98.87,165.82a6.3,6.3,0,0,1,3.16-8.33l111.06-49.85a6.32,6.32,0,0,1,8.33,3.17Z" style="opacity:0.30000000000000004"></path><rect x="200.4" y="108.68" width="3.89" height="1" transform="translate(-26.96 92.38) rotate(-24.16)" style="fill:#F44336"></rect><rect x="184" y="114.19" width="12.13" height="1" transform="translate(-30.29 87.83) rotate(-24.16)" style="fill:#F44336"></rect><rect x="99.33" y="171.59" width="1" height="7.4" transform="translate(-63.04 56.26) rotate(-24.18)" style="fill:#F44336"></rect><path d="M217.7,107.43l-28.64,56.1a25.65,25.65,0,0,1-29.3,13.15L98.81,160.79a6.39,6.39,0,0,1,3.22-3.3l111.06-49.85A6.3,6.3,0,0,1,217.7,107.43Z" style="fill:#F44336;opacity:0.6000000000000001"></path><path d="M257.07,179.23l-86.18,5.32A11.6,11.6,0,0,0,160,196.84l9.83,159.28A11.6,11.6,0,0,0,182.14,367l110.3-6.81a11.58,11.58,0,0,0,10.86-12.29L295,212.73Z" style="fill:#F44336"></path><path d="M257.07,179.23l-86.18,5.32A11.6,11.6,0,0,0,160,196.84l9.83,159.28A11.6,11.6,0,0,0,182.14,367l110.3-6.81a11.58,11.58,0,0,0,10.86-12.29L295,212.73Z" style="fill:#fff;opacity:0.8"></path><g style="opacity:0.22"><path d="M262.28,346l-71.71,4.43a5.08,5.08,0,0,1-5.36-4.75h0a5.09,5.09,0,0,1,4.74-5.37l71.71-4.42a5.08,5.08,0,0,1,5.37,4.74h0A5.08,5.08,0,0,1,262.28,346Z" style="fill:#F44336"></path></g><g style="opacity:0.22"><path d="M219.84,207.68,181.91,210a5.09,5.09,0,0,1-5.37-4.74h0a5.09,5.09,0,0,1,4.75-5.37l37.93-2.34a5.07,5.07,0,0,1,5.36,4.74h0A5.08,5.08,0,0,1,219.84,207.68Z" style="fill:#F44336"></path></g><g style="opacity:0.22"><path d="M245.82,226.22l-62.67,3.86a5.07,5.07,0,0,1-5.37-4.74h0a5.08,5.08,0,0,1,4.75-5.37l62.66-3.86a5.07,5.07,0,0,1,5.37,4.74h0A5.08,5.08,0,0,1,245.82,226.22Z" style="fill:#F44336"></path></g><g style="opacity:0.22"><path d="M275.85,244.51l-91.46,5.64A5.09,5.09,0,0,1,179,245.4h0a5.07,5.07,0,0,1,4.74-5.36l91.47-5.65a5.08,5.08,0,0,1,5.36,4.75h0A5.08,5.08,0,0,1,275.85,244.51Z" style="fill:#F44336"></path></g><g style="opacity:0.22"><path d="M277.09,264.57l-53.17,3.28a5.08,5.08,0,0,1-5.37-4.74h0a5.07,5.07,0,0,1,4.74-5.37l53.17-3.28a5.07,5.07,0,0,1,5.37,4.74h0A5.08,5.08,0,0,1,277.09,264.57Z" style="fill:#F44336"></path></g><g style="opacity:0.22"><path d="M199.53,269.35l-13.91.86a5.07,5.07,0,0,1-5.36-4.74h0A5.08,5.08,0,0,1,185,260.1l13.91-.86a5.09,5.09,0,0,1,5.37,4.75h0A5.08,5.08,0,0,1,199.53,269.35Z" style="fill:#F44336"></path></g><g style="opacity:0.22"><path d="M278.33,284.63l-91.47,5.64a5.08,5.08,0,0,1-5.37-4.74h0a5.09,5.09,0,0,1,4.75-5.37l91.46-5.64a5.08,5.08,0,0,1,5.37,4.75h0A5.07,5.07,0,0,1,278.33,284.63Z" style="fill:#F44336"></path></g><g style="opacity:0.22"><path d="M244.27,306.87l-56.17,3.47a5.09,5.09,0,0,1-5.37-4.75h0a5.08,5.08,0,0,1,4.75-5.36l56.17-3.47a5.08,5.08,0,0,1,5.36,4.75h0A5.06,5.06,0,0,1,244.27,306.87Z" style="fill:#F44336"></path></g><g style="opacity:0.22"><path d="M279.56,304.7l-15,.92a5.07,5.07,0,0,1-5.36-4.74h0a5.07,5.07,0,0,1,4.74-5.37l15-.92a5.07,5.07,0,0,1,5.37,4.74h0A5.09,5.09,0,0,1,279.56,304.7Z" style="fill:#F44336"></path></g><g style="opacity:0.22"><path d="M280.8,324.76l-91.46,5.64a5.08,5.08,0,0,1-5.37-4.74h0a5.08,5.08,0,0,1,4.74-5.37l91.47-5.64a5.07,5.07,0,0,1,5.36,4.74h0A5.07,5.07,0,0,1,280.8,324.76Z" style="fill:#F44336"></path></g><path d="M257.07,179.23l1.49,24.12a11.6,11.6,0,0,0,12.29,10.87L295,212.73Z" style="fill:#F44336;opacity:0.22"></path><path d="M228.85,239.4h0a8.65,8.65,0,0,0-9-8.53H139.75c-6.07,0-12,4.93-13.14,11L95,403.82c-1.18,6.07,2.78,11,8.85,11h254c6.07,0,11.95-4.92,13.14-11l26.07-133.5c1.18-6.08-2.78-11-8.85-11H250C238,259.32,229.26,251.06,228.85,239.4Z" style="fill:#F44336;opacity:0.5"></path></g></svg>